<svg width="24" height="18" viewBox="0 0 24 18" fill="none" xmlns="http://www.w3.org/2000/svg">
<path d="M22 10H4C3.44 10 3 9.56 3 9C3 8.44 3.44 8 4 8H22C22.56 8 23 8.44 23 9C23 9.56 22.56 10 22 10Z" fill="#252525"/>
<path d="M9 17C8.86885 17.0016 8.73881 16.9757 8.61826 16.9241C8.4977 16.8724 8.38929 16.7961 8.3 16.7L1.3 9.7C0.9 9.3 0.9 8.68 1.3 8.28L8.3 1.3C8.7 0.9 9.32 0.9 9.72 1.3C10.12 1.7 10.12 2.32 9.72 2.72L3.42 9.02L9.72 15.32C10.12 15.72 10.12 16.34 9.72 16.74C9.52 16.94 9.26 17.04 9.02 17.04L9 17Z" fill="#252525"/>
</svg>
