<svg width="24" height="24" viewBox="0 0 24 24" fill="none" xmlns="http://www.w3.org/2000/svg">
<path d="M12 3C7.03725 3 3 7.03725 3 12C3 16.9628 7.03725 21 12 21C16.9628 21 21 16.9628 21 12C21 7.03725 16.9628 3 12 3ZM12 4.5C16.1512 4.5 19.5 7.84875 19.5 12C19.5 16.1512 16.1512 19.5 12 19.5C7.84875 19.5 4.5 16.1512 4.5 12C4.5 7.84875 7.84875 4.5 12 4.5ZM8.625 9C8.32663 9 8.04048 9.11853 7.8295 9.3295C7.61853 9.54048 7.5 9.82663 7.5 10.125C7.5 10.4234 7.61853 10.7095 7.8295 10.9205C8.04048 11.1315 8.32663 11.25 8.625 11.25C8.92337 11.25 9.20952 11.1315 9.4205 10.9205C9.63147 10.7095 9.75 10.4234 9.75 10.125C9.75 9.82663 9.63147 9.54048 9.4205 9.3295C9.20952 9.11853 8.92337 9 8.625 9ZM15.375 9C15.0766 9 14.7905 9.11853 14.5795 9.3295C14.3685 9.54048 14.25 9.82663 14.25 10.125C14.25 10.4234 14.3685 10.7095 14.5795 10.9205C14.7905 11.1315 15.0766 11.25 15.375 11.25C15.6734 11.25 15.9595 11.1315 16.1705 10.9205C16.3815 10.7095 16.5 10.4234 16.5 10.125C16.5 9.82663 16.3815 9.54048 16.1705 9.3295C15.9595 9.11853 15.6734 9 15.375 9ZM8.109 14.25L6.8205 15C7.85775 16.7903 9.78525 18 12 18C14.2148 18 16.1423 16.7903 17.1795 15L15.891 14.25C15.4977 14.9342 14.9309 15.5025 14.2477 15.8976C13.5645 16.2927 12.7892 16.5004 12 16.5C11.2108 16.5004 10.4355 16.2927 9.7523 15.8976C9.06912 15.5025 8.50227 14.9342 8.109 14.25Z" fill="#D6D6D6"/>
</svg>
