<svg width="48" height="48" viewBox="0 0 48 48" fill="none" xmlns="http://www.w3.org/2000/svg">
<path d="M1.03462 34.9731H0V27.0811H2.66078C3.10035 27.0811 3.4838 27.1445 3.8088 27.2724C4.13497 27.4004 4.40619 27.571 4.62247 27.7854C4.83875 27.9998 4.9989 28.2511 5.10529 28.5405C5.21167 28.8298 5.26428 29.133 5.26428 29.4477C5.26428 29.7786 5.20349 30.0887 5.08191 30.378C4.96033 30.6674 4.78029 30.9233 4.5418 31.1447C4.30332 31.366 4.0052 31.5412 3.64864 31.6692C3.29208 31.7971 2.8829 31.8605 2.41996 31.8605C2.14756 31.8605 1.89739 31.8432 1.66942 31.8098C1.44145 31.7764 1.22985 31.7326 1.03228 31.6807V34.9731H1.03462ZM1.03462 31.2184C1.19361 31.2784 1.37248 31.3176 1.56888 31.3372C1.76645 31.3556 1.98156 31.3648 2.21654 31.3648C2.55791 31.3648 2.849 31.3084 3.09217 31.1954C3.33416 31.0824 3.53524 30.936 3.6954 30.7562C3.85439 30.5752 3.97013 30.3746 4.04261 30.1532C4.11393 29.9319 4.15017 29.7117 4.15017 29.4939C4.15017 29.2679 4.11042 29.0408 4.03093 28.8114C3.95143 28.582 3.83218 28.3756 3.67319 28.1912C3.5142 28.0067 3.31312 27.8592 3.06996 27.7462C2.82679 27.6332 2.54738 27.5768 2.22823 27.5768H1.03462V31.2184Z" fill="white"/>
<path d="M6.9707 34.9731V27.0811H8.00532V34.3529H12.1111V34.9731H6.9707Z" fill="white"/>
<path d="M14.3174 32.6502L13.3167 34.9731H12.793L16.1587 27.0811H16.7269L20.434 34.9731H19.3304L18.2385 32.6502H14.3174ZM16.216 28.3434H16.1704L14.5325 32.143H18.0011L16.216 28.3434Z" fill="white"/>
<path d="M27.8167 27.0811L22.7675 34.3529H28.0108V34.9731H21.1191L26.2139 27.7013H21.4032V27.0811H27.8167Z" fill="white"/>
<path d="M34.1397 33.8562H34.1853L37.8702 27.0812H38.6547V34.9733H37.62V28.581H37.5744L33.9807 35.1081H33.7762L30.2608 28.5349H30.2152V34.9721H29.7148V27.0801H30.4876L34.1397 33.8562Z" fill="white"/>
<path d="M41.8838 32.6502L40.8831 34.9731H40.3594L43.7251 27.0811H44.2933L48.0004 34.9731H46.8968L45.8049 32.6502H41.8838ZM43.7824 28.3434H43.7368L42.0989 32.143H45.5675L43.7824 28.3434Z" fill="white"/>
<path d="M13.7376 40.8909H13.4009V38.5346H11.8484V40.8909H11.5117V38.334H13.7376V40.8909Z" fill="white"/>
<path d="M14.7898 40.1381L14.4637 40.8909H14.293L15.3895 38.334H15.5743L16.7819 40.8909H16.423L16.0676 40.1381H14.7898ZM15.4094 38.7421H15.3942L14.8611 39.9733H15.9916L15.4094 38.7421Z" fill="white"/>
<path d="M17.6765 40.8909H17.3398V38.334H18.2073C18.3499 38.334 18.475 38.3547 18.5814 38.3962C18.6878 38.4377 18.7755 38.4931 18.8468 38.5622C18.9169 38.6314 18.9695 38.7133 19.0046 38.8066C19.0397 38.9 19.056 38.998 19.056 39.1006C19.056 39.2078 19.0362 39.3081 18.9964 39.4015C18.9567 39.4948 18.8982 39.5778 18.8199 39.6493C18.7415 39.7208 18.6457 39.7773 18.5288 39.8199C18.413 39.8614 18.2798 39.8822 18.129 39.8822C18.0401 39.8822 17.9583 39.8764 17.8846 39.866C17.811 39.8545 17.7408 39.8407 17.6777 39.8245V40.8909H17.6765ZM17.6765 39.6735C17.728 39.6931 17.7864 39.7058 17.8507 39.7116C17.915 39.7173 17.9852 39.7208 18.0623 39.7208C18.1734 39.7208 18.2681 39.7024 18.3476 39.6666C18.4271 39.6297 18.4925 39.5825 18.544 39.5237C18.5954 39.4649 18.634 39.4003 18.6574 39.3288C18.6808 39.2574 18.6924 39.1859 18.6924 39.1156C18.6924 39.0429 18.6796 38.9692 18.6539 38.8942C18.6282 38.8205 18.5896 38.7536 18.537 38.6937C18.4855 38.6337 18.4201 38.5853 18.3406 38.5496C18.2611 38.5138 18.1699 38.4954 18.0658 38.4954H17.6765V39.6735Z" fill="white"/>
<path d="M19.7199 38.333H20.0566V39.7728L21.4455 38.333H21.6302L20.6891 39.3233L21.8453 40.8911H21.4595L20.474 39.5504L20.0554 39.9919V40.8911H19.7188V38.333H19.7199Z" fill="white"/>
<path d="M23.0958 39.7764V40.0507H22.1816V39.7764H23.0958Z" fill="white"/>
<path d="M23.5814 39.1698C23.634 39.0142 23.7182 38.8712 23.8315 38.741C23.9449 38.6107 24.0899 38.5023 24.2653 38.417C24.4406 38.3317 24.6511 38.2891 24.8954 38.2891C25.1421 38.2891 25.3572 38.3317 25.5384 38.4182C25.7196 38.5046 25.8692 38.6142 25.9885 38.7456C26.1065 38.877 26.1942 39.0199 26.2515 39.1744C26.3076 39.3289 26.3368 39.4741 26.3368 39.6113C26.3368 39.7012 26.324 39.7969 26.2983 39.8961C26.2725 39.9952 26.234 40.0955 26.1837 40.1935C26.1334 40.2915 26.068 40.386 25.9896 40.4748C25.9101 40.5635 25.8166 40.6419 25.7102 40.7111C25.6038 40.7803 25.4823 40.8333 25.3478 40.8736C25.2134 40.914 25.0626 40.9336 24.8977 40.9336C24.6534 40.9336 24.443 40.8909 24.2676 40.8045C24.0922 40.718 23.9473 40.6096 23.8339 40.4771C23.7205 40.3456 23.6363 40.2027 23.5837 40.0482C23.5299 39.8938 23.5042 39.7485 23.5042 39.6113C23.5007 39.473 23.5276 39.3254 23.5814 39.1698ZM23.9438 40.0817C23.9964 40.2246 24.07 40.3468 24.1624 40.4482C24.2547 40.5508 24.3646 40.6304 24.4897 40.688C24.616 40.7457 24.7528 40.7745 24.9012 40.7745C25.0474 40.7745 25.1842 40.7457 25.3139 40.688C25.4437 40.6304 25.5571 40.5508 25.6553 40.4482C25.7523 40.3456 25.8295 40.2234 25.8868 40.0817C25.9429 39.9387 25.9721 39.7831 25.9721 39.6125C25.9721 39.4419 25.944 39.2851 25.8868 39.1433C25.8295 39.0003 25.7523 38.8781 25.6553 38.7767C25.5571 38.6741 25.4437 38.5946 25.3139 38.5369C25.1842 38.4793 25.0474 38.4516 24.9012 38.4516C24.7528 38.4516 24.616 38.4804 24.4897 38.5369C24.3635 38.5946 24.2547 38.6741 24.1624 38.7767C24.07 38.8793 23.9964 39.0015 23.9438 39.1433C23.8912 39.2862 23.8643 39.4419 23.8643 39.6125C23.8643 39.7831 23.8912 39.9387 23.9438 40.0817Z" fill="white"/>
<path d="M27.5902 40.8909V38.5346H26.5977V38.334H28.9206V38.5346H27.928V40.8909H27.5902Z" fill="white"/>
<path d="M31.1136 38.333V38.5336H29.7761V39.4512H30.9242V39.6264H29.7761V40.6893H31.1136V40.8899H29.4395V38.333H31.1136Z" fill="white"/>
<path d="M34.0372 40.8912H33.6702L32.7326 38.7436H32.7174L31.9949 40.5512C31.9458 40.6757 31.8897 40.7702 31.8265 40.8359C31.7634 40.9016 31.6921 40.9339 31.6138 40.9339C31.5647 40.9339 31.5156 40.9304 31.4676 40.9235C31.4197 40.9166 31.3741 40.9051 31.332 40.8901L31.4314 40.6411C31.456 40.6538 31.4828 40.6676 31.5132 40.6849C31.5425 40.7022 31.574 40.7102 31.6056 40.7102C31.6874 40.7102 31.747 40.6768 31.7856 40.6111C31.8242 40.5454 31.864 40.4578 31.906 40.3483L32.7057 38.332H32.9091L34.0372 40.8912Z" fill="white"/>
<path d="M34.5938 38.333H34.9304V39.4512H35.4974C35.6611 39.4512 35.799 39.4708 35.9136 39.5112C36.0282 39.5515 36.1217 39.6034 36.1954 39.6668C36.269 39.7302 36.3216 39.8028 36.3544 39.8858C36.3871 39.9688 36.4046 40.0518 36.4046 40.1337C36.4046 40.2213 36.3894 40.31 36.359 40.3988C36.3275 40.4876 36.2772 40.5694 36.2047 40.6421C36.1334 40.7147 36.0375 40.7746 35.9195 40.8219C35.8002 40.868 35.6529 40.8911 35.4752 40.8911H34.5938V38.333ZM35.4565 40.7297C35.543 40.7297 35.6214 40.7147 35.6915 40.6859C35.7616 40.657 35.8224 40.6167 35.8727 40.5648C35.923 40.5141 35.9627 40.4553 35.9908 40.3873C36.0188 40.3204 36.034 40.2489 36.034 40.174C36.034 40.0933 36.0188 40.0184 35.9873 39.9492C35.9557 39.8801 35.9136 39.8201 35.8575 39.7705C35.8014 39.721 35.7348 39.6818 35.6576 39.6541C35.5793 39.6264 35.4951 39.6115 35.4039 39.6115H34.9293V40.7297H35.4565Z" fill="white"/>
<path d="M18.6923 43.1221L19.2604 44.985H21.0994L19.6111 46.1355L20.1805 47.9995L18.6923 46.8479L17.204 47.9995L17.7734 46.1355L16.2852 44.985H18.1241L18.6923 43.1221Z" fill="white"/>
<path d="M23.5067 43.1221L24.0749 44.985H25.9138L24.4256 46.1355L24.9949 47.9995L23.5067 46.8479L22.0185 47.9995L22.5878 46.1355L21.0996 44.985H22.9385L23.5067 43.1221Z" fill="white"/>
<path d="M28.3212 43.1221L28.8893 44.985H30.7283L29.24 46.1355L29.8094 47.9995L28.3212 46.8479L26.8329 47.9995L27.4023 46.1355L25.9141 44.985H27.753L28.3212 43.1221Z" fill="white"/>
<path fill-rule="evenodd" clip-rule="evenodd" d="M8.26343 7.73177L12.361 3.79152L12.6147 3.54713L12.8695 3.30273L13.1232 3.54713L13.3769 3.79152L16.0108 6.32536C15.9921 6.40721 15.9734 6.4879 15.9559 6.57091C15.8542 7.05162 15.777 7.54271 15.7256 8.04302L12.8672 5.29476L8.72755 9.27651L8.07404 9.90478L8.11146 9.00906L8.15354 7.9727L8.15939 7.83091L8.26343 7.73177ZM8.06352 12.5239L12.3598 8.39347L12.6135 8.14908L12.8672 7.90469L13.1209 8.14908L13.3757 8.39347L15.6461 10.5769V12.5677L12.8672 9.89556L8.52764 14.0687L7.87414 14.6969L7.91155 13.8012L7.9548 12.7649L7.96065 12.6231L8.06352 12.5239ZM13.5125 15.1166V19.4903H12.2266V15.1166L8.33124 18.8631L7.67773 19.4914L7.71515 18.5957L7.7584 17.5593L7.76424 17.4175L7.86595 17.3196L12.361 12.9966L12.6147 12.7522L12.8684 12.5078L13.1221 12.7522L13.3769 12.9966L15.6472 15.18V17.1708L13.5125 15.1166Z" fill="white"/>
<path fill-rule="evenodd" clip-rule="evenodd" d="M18.4613 19.4903H17.4629V9.60854C17.4629 7.71565 17.8183 6.03833 18.5279 4.5812C19.2387 3.12407 20.2453 1.99779 21.5593 1.19545C22.8675 0.400019 24.3533 0 26.0169 0C28.4217 0 30.3565 0.828857 31.8201 2.48773C29.7287 3.76618 27.615 5.40314 25.7024 7.3041C22.4092 10.5757 19.6596 14.6589 18.5653 19.0718L18.4613 19.4903ZM34.1208 19.4903H27.29C28.3328 18.7006 29.7649 17.9698 31.3654 17.421C32.255 17.1155 33.1868 16.8723 34.1208 16.7109V19.4903Z" fill="white"/>
<path fill-rule="evenodd" clip-rule="evenodd" d="M37.6902 11.181C37.834 13.082 38.0854 14.5333 38.2958 14.8307C33.2805 14.1402 26.9138 16.7063 24.7137 19.4915H23.845C25.2947 17.4695 27.4715 15.5282 30.0995 13.9984C32.3582 12.6819 34.9465 11.6732 37.6902 11.181ZM37.6107 6.41881C37.5464 7.79409 37.5687 9.20281 37.6423 10.4663C34.7793 10.9689 32.0799 12.0145 29.7289 13.384C26.839 15.0659 24.4705 17.2389 22.9671 19.4903H22.1254C23.2523 17.1548 25.5881 14.3443 28.5178 11.8496C31.2136 9.55441 34.4028 7.53933 37.6107 6.41881ZM20.3262 19.4903C22.5322 10.5896 32.2132 2.9708 38.4244 1.51367C38.0059 2.62497 37.7686 4.09362 37.6563 5.65105C34.2579 6.78309 30.8793 8.89732 28.0443 11.3113C24.9323 13.9615 22.4656 16.9888 21.3362 19.4903H20.3262Z" fill="white"/>
<path d="M38.2935 20.6592H7.67578V22.1774H38.2935V20.6592Z" fill="white"/>
</svg>
