<svg width="48" height="48" viewBox="0 0 48 48" fill="none" xmlns="http://www.w3.org/2000/svg">
<path d="M1.2664 34.9736H0.242188V27.0815H2.87622C3.31136 27.0815 3.69096 27.1449 4.01269 27.2729C4.33558 27.4009 4.60408 27.5715 4.81818 27.7859C5.03228 28.0003 5.19083 28.2516 5.29614 28.541C5.40146 28.8303 5.45354 29.1335 5.45354 29.4482C5.45354 29.7791 5.39336 30.0892 5.273 30.3785C5.15264 30.6679 4.97441 30.9238 4.73832 31.1451C4.50223 31.3665 4.20712 31.5417 3.85414 31.6697C3.50116 31.7976 3.0961 31.861 2.63781 31.861C2.36816 31.861 2.1205 31.8437 1.89482 31.8103C1.66915 31.7769 1.45967 31.7331 1.26409 31.6812V34.9736H1.2664ZM1.2664 31.2189C1.4238 31.2789 1.60086 31.3181 1.79529 31.3377C1.99087 31.3561 2.20382 31.3653 2.43644 31.3653C2.77437 31.3653 3.06254 31.3088 3.30326 31.1959C3.54282 31.0829 3.74188 30.9365 3.90043 30.7566C4.05782 30.5757 4.1724 30.3751 4.24415 30.1537C4.31475 29.9324 4.35062 29.7122 4.35062 29.4943C4.35062 29.2684 4.31128 29.0413 4.23258 28.8119C4.15388 28.5825 4.03583 28.3761 3.87844 28.1917C3.72105 28.0072 3.52199 27.8597 3.28127 27.7467C3.04055 27.6337 2.76396 27.5772 2.44801 27.5772H1.2664V31.2189Z" fill="#262E4A"/>
<path d="M7.14258 34.9736V27.0815H8.16679V34.3534H12.2313V34.9736H7.14258Z" fill="#262E4A"/>
<path d="M14.4154 32.6507L13.4247 34.9736H12.9062L16.2381 27.0815H16.8006L20.4704 34.9736H19.3779L18.297 32.6507H14.4154ZM16.2948 28.3438H16.2497L14.6283 32.1435H18.0621L16.2948 28.3438Z" fill="#262E4A"/>
<path d="M27.7786 27.0815L22.7802 34.3534H27.9708V34.9736H21.1484L26.192 27.7017H21.4297V27.0815H27.7786Z" fill="#262E4A"/>
<path d="M34.0386 33.8567H34.0837L37.7316 27.0817H38.5081V34.9737H37.4839V28.5815H37.4388L33.8812 35.1086H33.6787L30.1987 28.5354H30.1535V34.9726H29.6582V27.0806H30.4232L34.0386 33.8567Z" fill="#262E4A"/>
<path d="M41.7044 32.6507L40.7138 34.9736H40.1953L43.5272 27.0815H44.0897L47.7595 34.9736H46.667L45.586 32.6507H41.7044ZM43.5839 28.3438H43.5388L41.9174 32.1435H45.3511L43.5839 28.3438Z" fill="#262E4A"/>
<path d="M13.8402 40.8911H13.5069V38.5348H11.97V40.8911H11.6367V38.3342H13.8402V40.8911Z" fill="#262E4A"/>
<path d="M14.8825 40.1383L14.5596 40.8911H14.3906L15.4762 38.3342H15.659L16.8545 40.8911H16.4992L16.1474 40.1383H14.8825ZM15.4959 38.7423H15.4808L14.9531 39.9735H16.0722L15.4959 38.7423Z" fill="#262E4A"/>
<path d="M17.7396 40.8911H17.4062V38.3342H18.265C18.4062 38.3342 18.53 38.355 18.6353 38.3965C18.7406 38.438 18.8274 38.4933 18.898 38.5625C18.9675 38.6316 19.0195 38.7135 19.0543 38.8069C19.089 38.9002 19.1052 38.9982 19.1052 39.1008C19.1052 39.208 19.0855 39.3083 19.0462 39.4017C19.0068 39.4951 18.9489 39.5781 18.8714 39.6496C18.7939 39.721 18.699 39.7775 18.5832 39.8202C18.4687 39.8617 18.3367 39.8824 18.1874 39.8824C18.0995 39.8824 18.0185 39.8767 17.9456 39.8663C17.8726 39.8548 17.8032 39.8409 17.7407 39.8248V40.8911H17.7396ZM17.7396 39.6738C17.7905 39.6934 17.8483 39.7061 17.912 39.7118C17.9756 39.7176 18.0451 39.721 18.1215 39.721C18.2314 39.721 18.3252 39.7026 18.4038 39.6669C18.4825 39.63 18.5474 39.5827 18.5983 39.5239C18.6492 39.4651 18.6874 39.4006 18.7105 39.3291C18.7337 39.2576 18.7453 39.1861 18.7453 39.1158C18.7453 39.0432 18.7325 38.9694 18.7071 38.8945C18.6816 38.8207 18.6434 38.7538 18.5913 38.6939C18.5404 38.634 18.4756 38.5855 18.3969 38.5498C18.3182 38.5141 18.2279 38.4956 18.1249 38.4956H17.7396V39.6738Z" fill="#262E4A"/>
<path d="M19.7629 38.333H20.0962V39.7728L21.4711 38.333H21.6539L20.7223 39.3233L21.8669 40.8911H21.4849L20.5093 39.5504L20.095 39.9919V40.8911H19.7617V38.333H19.7629Z" fill="#262E4A"/>
<path d="M23.1042 39.7761V40.0505H22.1992V39.7761H23.1042Z" fill="#262E4A"/>
<path d="M23.5845 39.1698C23.6366 39.0142 23.7199 38.8712 23.8322 38.741C23.9444 38.6107 24.0879 38.5023 24.2615 38.417C24.4351 38.3317 24.6434 38.2891 24.8853 38.2891C25.1295 38.2891 25.3424 38.3317 25.5218 38.4182C25.7012 38.5046 25.8493 38.6142 25.9674 38.7456C26.0843 38.877 26.1711 39.0199 26.2278 39.1744C26.2833 39.3289 26.3123 39.4741 26.3123 39.6113C26.3123 39.7012 26.2995 39.7969 26.2741 39.8961C26.2486 39.9952 26.2104 40.0955 26.1607 40.1935C26.1109 40.2915 26.0461 40.386 25.9685 40.4748C25.8898 40.5635 25.7973 40.6419 25.692 40.7111C25.5866 40.7803 25.4663 40.8333 25.3332 40.8736C25.2001 40.914 25.0508 40.9336 24.8876 40.9336C24.6457 40.9336 24.4374 40.8909 24.2638 40.8045C24.0902 40.718 23.9467 40.6096 23.8345 40.4771C23.7222 40.3456 23.6389 40.2027 23.5868 40.0482C23.5336 39.8938 23.5081 39.7485 23.5081 39.6113C23.5046 39.473 23.5313 39.3254 23.5845 39.1698ZM23.9433 40.0817C23.9953 40.2246 24.0683 40.3468 24.1597 40.4482C24.2511 40.5508 24.3599 40.6304 24.4837 40.688C24.6087 40.7457 24.7441 40.7745 24.8911 40.7745C25.0358 40.7745 25.1712 40.7457 25.2996 40.688C25.4281 40.6304 25.5403 40.5508 25.6376 40.4482C25.7336 40.3456 25.81 40.2234 25.8667 40.0817C25.9223 39.9387 25.9512 39.7831 25.9512 39.6125C25.9512 39.4419 25.9234 39.2851 25.8667 39.1433C25.81 39.0003 25.7336 38.8781 25.6376 38.7767C25.5403 38.6741 25.4281 38.5946 25.2996 38.5369C25.1712 38.4793 25.0358 38.4516 24.8911 38.4516C24.7441 38.4516 24.6087 38.4804 24.4837 38.5369C24.3587 38.5946 24.2511 38.6741 24.1597 38.7767C24.0683 38.8793 23.9953 39.0015 23.9433 39.1433C23.8912 39.2862 23.8646 39.4419 23.8646 39.6125C23.8646 39.7831 23.8912 39.9387 23.9433 40.0817Z" fill="#262E4A"/>
<path d="M27.5529 40.8911V38.5348H26.5703V38.3342H28.8699V38.5348H27.8873V40.8911H27.5529Z" fill="#262E4A"/>
<path d="M31.042 38.333V38.5336H29.7181V39.4512H30.8545V39.6264H29.7181V40.6893H31.042V40.8899H29.3848V38.333H31.042Z" fill="#262E4A"/>
<path d="M33.9358 40.891H33.5724L32.6443 38.7433H32.6292L31.914 40.5509C31.8654 40.6754 31.8099 40.77 31.7474 40.8357C31.6849 40.9014 31.6143 40.9336 31.5367 40.9336C31.4881 40.9336 31.4395 40.9302 31.3921 40.9233C31.3446 40.9163 31.2995 40.9048 31.2578 40.8898L31.3562 40.6408C31.3805 40.6535 31.4071 40.6674 31.4372 40.6846C31.4661 40.7019 31.4974 40.71 31.5286 40.71C31.6096 40.71 31.6687 40.6766 31.7068 40.6109C31.745 40.5452 31.7844 40.4575 31.8261 40.348L32.6176 38.3318H32.819L33.9358 40.891Z" fill="#262E4A"/>
<path d="M34.4863 38.333H34.8196V39.4512H35.3809C35.5429 39.4512 35.6795 39.4708 35.7929 39.5112C35.9063 39.5515 35.9989 39.6034 36.0718 39.6668C36.1447 39.7302 36.1968 39.8028 36.2292 39.8858C36.2616 39.9688 36.279 40.0518 36.279 40.1337C36.279 40.2213 36.2639 40.31 36.2339 40.3988C36.2026 40.4876 36.1529 40.5694 36.0811 40.6421C36.0105 40.7147 35.9156 40.7746 35.7987 40.8219C35.6807 40.868 35.5348 40.8911 35.3589 40.8911H34.4863V38.333ZM35.3404 40.7297C35.4261 40.7297 35.5036 40.7147 35.573 40.6859C35.6425 40.657 35.7027 40.6167 35.7524 40.5648C35.8022 40.5141 35.8415 40.4553 35.8693 40.3873C35.8971 40.3204 35.9121 40.2489 35.9121 40.174C35.9121 40.0933 35.8971 40.0184 35.8658 39.9492C35.8346 39.8801 35.7929 39.8201 35.7374 39.7705C35.6818 39.721 35.6159 39.6818 35.5395 39.6541C35.4619 39.6264 35.3786 39.6115 35.2883 39.6115H34.8185V40.7297H35.3404Z" fill="#262E4A"/>
<path d="M18.7462 43.1223L19.3086 44.9852H21.1291L19.6558 46.1357L20.2194 47.9998L18.7462 46.8481L17.2729 47.9998L17.8365 46.1357L16.3633 44.9852H18.1837L18.7462 43.1223Z" fill="#262E4A"/>
<path d="M23.5118 43.1223L24.0742 44.9852H25.8947L24.4214 46.1357L24.9851 47.9998L23.5118 46.8481L22.0385 47.9998L22.6022 46.1357L21.1289 44.9852H22.9493L23.5118 43.1223Z" fill="#262E4A"/>
<path d="M28.2774 43.1223L28.8399 44.9852H30.6603L29.1871 46.1357L29.7507 47.9998L28.2774 46.8481L26.8042 47.9998L27.3678 46.1357L25.8945 44.9852H27.715L28.2774 43.1223Z" fill="#262E4A"/>
<path fill-rule="evenodd" clip-rule="evenodd" d="M8.42356 7.73177L12.4799 3.79152L12.7311 3.54713L12.9833 3.30273L13.2345 3.54713L13.4856 3.79152L16.093 6.32536C16.0745 6.40721 16.056 6.4879 16.0386 6.57091C15.9379 7.05162 15.8616 7.54271 15.8106 8.04302L12.981 5.29476L8.88301 9.27651L8.23607 9.90478L8.27311 9.00906L8.31477 7.9727L8.32056 7.83091L8.42356 7.73177ZM8.22566 12.5239L12.4788 8.39347L12.7299 8.14908L12.981 7.90469L13.2322 8.14908L13.4845 8.39347L15.7319 10.5769V12.5677L12.981 9.89556L8.68511 14.0687L8.03818 14.6969L8.07521 13.8012L8.11803 12.7649L8.12382 12.6231L8.22566 12.5239ZM13.6199 15.1166V19.4903H12.3468V15.1166L8.49068 18.8631L7.84375 19.4914L7.88078 18.5957L7.9236 17.5593L7.92939 17.4175L8.03007 17.3196L12.4799 12.9966L12.7311 12.7522L12.9822 12.5078L13.2333 12.7522L13.4856 12.9966L15.7331 15.18V17.1708L13.6199 15.1166Z" fill="#262E4A"/>
<path fill-rule="evenodd" clip-rule="evenodd" d="M18.5196 19.4903H17.5312V9.60854C17.5312 7.71565 17.8831 6.03833 18.5856 4.5812C19.2892 3.12407 20.2856 1.99779 21.5865 1.19545C22.8815 0.400019 24.3524 0 25.9993 0C28.3798 0 30.2952 0.828857 31.7441 2.48773C29.6737 3.76618 27.5813 5.40314 25.6879 7.3041C22.4278 10.5757 19.7058 14.6589 18.6226 19.0718L18.5196 19.4903ZM34.0217 19.4903H27.2596C28.2919 18.7006 29.7096 17.9698 31.2939 17.421C32.1746 17.1155 33.097 16.8723 34.0217 16.7109V19.4903Z" fill="#262E4A"/>
<path fill-rule="evenodd" clip-rule="evenodd" d="M37.5547 11.1815C37.697 13.0824 37.9459 14.5338 38.1542 14.8312C33.1893 14.1407 26.8867 16.7068 24.7086 19.492H23.8487C25.2838 17.47 27.4387 15.5287 30.0403 13.9989C32.2762 12.6824 34.8385 11.6737 37.5547 11.1815ZM37.476 6.4193C37.4124 7.79458 37.4343 9.2033 37.5072 10.4668C34.673 10.9694 32.0008 12.015 29.6734 13.3845C26.8126 15.0664 24.4679 17.2394 22.9796 19.4908H22.1463C23.262 17.1553 25.5743 14.3448 28.4745 11.8501C31.1432 9.5549 34.3004 7.53981 37.476 6.4193ZM20.3652 19.4908C22.5491 10.5901 32.1327 2.97129 38.2815 1.51416C37.8672 2.62545 37.6322 4.09411 37.5211 5.65154C34.1569 6.78358 30.8122 8.8978 28.0058 11.3118C24.925 13.962 22.4831 16.9893 21.3651 19.4908H20.3652Z" fill="#262E4A"/>
<path d="M38.1516 20.6592H7.8418V22.1774H38.1516V20.6592Z" fill="#262E4A"/>
</svg>
