<svg width="128" height="128" viewBox="0 0 128 128" fill="none" xmlns="http://www.w3.org/2000/svg">
<path d="M4.64589 92.35H2V71.9623H8.80457C9.92869 71.9623 10.9093 72.1261 11.7404 72.4567C12.5746 72.7873 13.2682 73.228 13.8213 73.7819C14.3744 74.3358 14.784 74.9851 15.056 75.7325C15.3281 76.48 15.4626 77.2633 15.4626 78.0763C15.4626 78.931 15.3072 79.7321 14.9962 80.4795C14.6853 81.227 14.2249 81.8882 13.615 82.46C13.0051 83.0317 12.2427 83.4844 11.3309 83.815C10.419 84.1455 9.3726 84.3093 8.18868 84.3093C7.49208 84.3093 6.85229 84.2646 6.2693 84.1783C5.6863 84.0919 5.14516 83.9788 4.6399 83.8447V92.35H4.64589ZM4.64589 82.6505C5.05249 82.8054 5.50991 82.9067 6.01218 82.9573C6.51744 83.0049 7.06754 83.0288 7.66847 83.0288C8.54147 83.0288 9.2859 82.8828 9.90776 82.591C10.5266 82.2991 11.0409 81.9209 11.4504 81.4563C11.857 80.9888 12.153 80.4706 12.3384 79.8988C12.5208 79.327 12.6134 78.7582 12.6134 78.1954C12.6134 77.6117 12.5118 77.025 12.3085 76.4324C12.1052 75.8397 11.8002 75.3067 11.3936 74.8302C10.987 74.3537 10.4728 73.9725 9.85096 73.6807C9.2291 73.3888 8.51456 73.2429 7.69837 73.2429H4.64589V82.6505Z" fill="#262626"/>
<path d="M19.8262 92.35V71.9623H22.4721V90.7479H32.9719V92.35H19.8262Z" fill="#262626"/>
<path d="M38.6154 86.3493L36.0562 92.35H34.7168L43.3242 71.9623H44.7771L54.2575 92.35H51.4352L48.6428 86.3493H38.6154ZM43.4706 75.2233H43.3541L39.1655 85.0389H48.0359L43.4706 75.2233Z" fill="#262626"/>
<path d="M73.1339 71.9623L60.2213 90.7479H73.6302V92.35H56.0059L69.035 73.5645H56.7324V71.9623H73.1339Z" fill="#262626"/>
<path d="M89.3063 89.4644H89.4229L98.8464 71.9625H100.852V92.3502H98.2066V75.8369H98.09L88.8997 92.6986H88.3765L79.3864 75.7178H79.2698V92.3472H77.9902V71.9595H79.9664L89.3063 89.4644Z" fill="#262626"/>
<path d="M109.11 86.3493L106.55 92.35H105.211L113.818 71.9623H115.271L124.752 92.35H121.929L119.137 86.3493H109.11ZM113.965 75.2233H113.848L109.66 85.0389H118.53L113.965 75.2233Z" fill="#262626"/>
<path d="M37.1299 107.637H36.2689V101.55H32.2985V107.637H31.4375V101.032H37.1299V107.637Z" fill="#262626"/>
<path d="M39.8195 105.693L38.9853 107.637H38.5488L41.3532 101.032H41.8255L44.9139 107.637H43.9961L43.0872 105.693H39.8195ZM41.404 102.086H41.3651L40.0018 105.267H42.8929L41.404 102.086Z" fill="#262626"/>
<path d="M47.1989 107.637H46.3379V101.032H48.5563C48.921 101.032 49.2409 101.086 49.513 101.193C49.785 101.3 50.0093 101.443 50.1916 101.622C50.371 101.8 50.5055 102.012 50.5952 102.253C50.6849 102.494 50.7268 102.747 50.7268 103.012C50.7268 103.289 50.676 103.548 50.5743 103.79C50.4727 104.031 50.3232 104.245 50.1229 104.43C49.9225 104.615 49.6774 104.761 49.3784 104.871C49.0824 104.978 48.7416 105.032 48.3559 105.032C48.1287 105.032 47.9194 105.017 47.7311 104.99C47.5427 104.96 47.3634 104.924 47.2019 104.883V107.637H47.1989ZM47.1989 104.493C47.3305 104.543 47.48 104.576 47.6444 104.591C47.8088 104.606 47.9882 104.615 48.1855 104.615C48.4696 104.615 48.7117 104.567 48.915 104.475C49.1183 104.379 49.2857 104.257 49.4173 104.105C49.5488 103.953 49.6475 103.787 49.7073 103.602C49.7671 103.417 49.797 103.233 49.797 103.051C49.797 102.864 49.7641 102.673 49.6983 102.479C49.6325 102.289 49.5339 102.116 49.3994 101.961C49.2678 101.806 49.1004 101.681 48.8971 101.589C48.6938 101.497 48.4606 101.449 48.1945 101.449H47.1989V104.493Z" fill="#262626"/>
<path d="M52.4268 101.028H53.2878V104.748L56.8396 101.028H57.312L54.9053 103.586L57.8621 107.636H56.8755L54.3552 104.173L53.2849 105.314V107.636H52.4238V101.028H52.4268Z" fill="#262626"/>
<path d="M61.0587 104.757V105.465H58.7207V104.757H61.0587Z" fill="#262626"/>
<path d="M62.3055 103.19C62.4401 102.788 62.6553 102.419 62.9453 102.082C63.2353 101.746 63.606 101.466 64.0545 101.246C64.503 101.025 65.0411 100.915 65.6659 100.915C66.2968 100.915 66.8469 101.025 67.3103 101.249C67.7737 101.472 68.1564 101.755 68.4613 102.094C68.7633 102.434 68.9875 102.803 69.134 103.202C69.2775 103.601 69.3523 103.976 69.3523 104.331C69.3523 104.563 69.3194 104.81 69.2536 105.066C69.1878 105.322 69.0892 105.582 68.9606 105.835C68.832 106.088 68.6646 106.332 68.4643 106.561C68.261 106.791 68.0218 106.993 67.7498 107.172C67.4777 107.351 67.1668 107.488 66.823 107.592C66.4792 107.696 66.0935 107.747 65.6719 107.747C65.0471 107.747 64.5089 107.636 64.0605 107.413C63.612 107.19 63.2413 106.91 62.9513 106.567C62.6613 106.228 62.446 105.859 62.3115 105.459C62.174 105.06 62.1082 104.685 62.1082 104.331C62.0992 103.973 62.168 103.592 62.3055 103.19ZM63.2323 105.546C63.3669 105.915 63.5552 106.231 63.7914 106.493C64.0276 106.758 64.3086 106.963 64.6285 107.112C64.9514 107.261 65.3012 107.336 65.6809 107.336C66.0546 107.336 66.4044 107.261 66.7363 107.112C67.0681 106.963 67.3581 106.758 67.6093 106.493C67.8574 106.228 68.0547 105.912 68.2012 105.546C68.3447 105.177 68.4195 104.775 68.4195 104.334C68.4195 103.893 68.3477 103.488 68.2012 103.122C68.0547 102.752 67.8574 102.437 67.6093 102.175C67.3581 101.91 67.0681 101.704 66.7363 101.555C66.4044 101.406 66.0546 101.335 65.6809 101.335C65.3012 101.335 64.9514 101.409 64.6285 101.555C64.3056 101.704 64.0276 101.91 63.7914 102.175C63.5552 102.44 63.3669 102.755 63.2323 103.122C63.0978 103.491 63.029 103.893 63.029 104.334C63.029 104.775 63.0978 105.177 63.2323 105.546Z" fill="#262626"/>
<path d="M72.55 107.637V101.55H70.0117V101.032H75.9523V101.55H73.414V107.637H72.55Z" fill="#262626"/>
<path d="M81.5645 101.028V101.546H78.1442V103.917H81.0801V104.37H78.1442V107.115H81.5645V107.634H77.2832V101.028H81.5645Z" fill="#262626"/>
<path d="M89.0451 107.637H88.1064L85.7086 102.088H85.6698L83.8221 106.758C83.6966 107.08 83.5531 107.324 83.3916 107.494C83.2302 107.663 83.0478 107.747 82.8475 107.747C82.7219 107.747 82.5963 107.738 82.4738 107.72C82.3512 107.702 82.2346 107.672 82.127 107.634L82.3811 106.99C82.4439 107.023 82.5126 107.059 82.5904 107.104C82.6651 107.148 82.7458 107.169 82.8266 107.169C83.0358 107.169 83.1883 107.083 83.287 106.913C83.3856 106.743 83.4873 106.517 83.5949 106.234L85.6399 101.025H86.1601L89.0451 107.637Z" fill="#262626"/>
<path d="M90.4648 101.028H91.3259V103.917H92.7759C93.1944 103.917 93.5472 103.968 93.8402 104.072C94.1332 104.176 94.3724 104.31 94.5607 104.474C94.7491 104.638 94.8836 104.825 94.9673 105.04C95.051 105.254 95.0959 105.468 95.0959 105.68C95.0959 105.906 95.057 106.136 94.9793 106.365C94.8986 106.594 94.77 106.806 94.5847 106.993C94.4023 107.181 94.1571 107.336 93.8552 107.458C93.5502 107.577 93.1735 107.636 92.7191 107.636H90.4648V101.028ZM92.6712 107.22C92.8925 107.22 93.0928 107.181 93.2722 107.106C93.4516 107.032 93.607 106.928 93.7356 106.794C93.8641 106.663 93.9658 106.511 94.0375 106.335C94.1093 106.162 94.1482 105.978 94.1482 105.784C94.1482 105.576 94.1093 105.382 94.0286 105.203C93.9478 105.025 93.8402 104.87 93.6967 104.742C93.5532 104.614 93.3828 104.513 93.1855 104.441C92.9852 104.37 92.7699 104.331 92.5367 104.331H91.3229V107.22H92.6712Z" fill="#262626"/>
<path d="M49.7984 113.4L51.2514 118.212H55.9542L52.1483 121.184L53.6043 126L49.7984 123.025L45.9925 126L47.4485 121.184L43.6426 118.212H48.3454L49.7984 113.4Z" fill="#262626"/>
<path d="M62.1089 113.399L63.5619 118.212H68.2647L64.4588 121.184L65.9148 125.999L62.1089 123.024L58.303 125.999L59.759 121.184L55.9531 118.212H60.6559L62.1089 113.399Z" fill="#262626"/>
<path d="M74.4234 113.399L75.8764 118.212H80.5792L76.7733 121.184L78.2293 125.999L74.4234 123.024L70.6175 125.999L72.0735 121.184L68.2676 118.212H72.9704L74.4234 113.399Z" fill="#262626"/>
<path fill-rule="evenodd" clip-rule="evenodd" d="M23.1326 21.9737L33.6115 11.7947L34.2603 11.1634L34.912 10.5321L35.5608 11.1634L36.2096 11.7947L42.9454 18.3405C42.8975 18.5519 42.8497 18.7604 42.8048 18.9748C42.5447 20.2167 42.3474 21.4853 42.2159 22.7778L34.9061 15.6781L24.3195 25.9643L22.6483 27.5873L22.7439 25.2734L22.8516 22.5961L22.8665 22.2298L23.1326 21.9737ZM22.6214 34.3535L33.6085 23.6831L34.2573 23.0518L34.9061 22.4204L35.5548 23.0518L36.2066 23.6831L42.0126 29.3235V34.4666L34.9061 27.5635L23.8083 38.344L22.137 39.9671L22.2327 37.6531L22.3433 34.9759L22.3583 34.6096L22.6214 34.3535ZM36.5564 41.0511V52.3498H33.2677V41.0511L23.306 50.7297L21.6348 52.3528L21.7304 50.0388L21.8411 47.3616L21.856 46.9953L22.1161 46.7421L33.6115 35.5745L34.2603 34.9431L34.909 34.3118L35.5578 34.9431L36.2096 35.5745L42.0156 41.2149V46.358L36.5564 41.0511Z" fill="#262626"/>
<path fill-rule="evenodd" clip-rule="evenodd" d="M49.2153 52.3498H46.6621V26.822C46.6621 21.9321 47.571 17.599 49.3857 13.8348C51.2035 10.0705 53.7776 7.16095 57.138 5.08823C60.4835 3.03338 64.2834 2 68.5378 2C74.6876 2 79.6355 4.14121 83.3787 8.42662C78.0301 11.7293 72.6247 15.9581 67.7335 20.8689C59.3115 29.3206 52.2798 39.8688 49.4814 51.2688L49.2153 52.3498ZM89.2624 52.3498H71.7936C74.4604 50.3099 78.1227 48.4218 82.2156 47.0042C84.4908 46.2151 86.8736 45.5867 89.2624 45.1698V52.3498Z" fill="#262626"/>
<path fill-rule="evenodd" clip-rule="evenodd" d="M98.3885 30.8851C98.7562 35.7959 99.399 39.5452 99.9371 40.3136C87.1113 38.5297 70.8294 45.1588 65.2028 52.3538H62.9814C66.6887 47.1303 72.2555 42.1153 78.9763 38.1634C84.7524 34.7625 91.3716 32.1567 98.3885 30.8851ZM98.1852 18.5828C98.0207 22.1356 98.0775 25.7747 98.2659 29.0387C90.9441 30.3371 84.0409 33.0382 78.0286 36.5761C70.638 40.9211 64.5809 46.5347 60.7362 52.3508H58.5836C61.4656 46.3173 67.4391 39.0568 74.9313 32.6123C81.8255 26.683 89.9814 21.4774 98.1852 18.5828ZM53.9824 52.3508C59.624 29.3573 84.3817 9.67542 100.266 5.91116C99.1957 8.782 98.5888 12.576 98.3018 16.5994C89.6107 19.5238 80.9705 24.9856 73.7204 31.2216C65.7618 38.0681 59.4536 45.8885 56.5655 52.3508H53.9824Z" fill="#262626"/>
<path d="M99.9331 55.3691H21.6328V59.2912H99.9331V55.3691Z" fill="#262626"/>
</svg>
