<svg width="44" height="44" viewBox="0 0 44 44" fill="none" xmlns="http://www.w3.org/2000/svg">
<path d="M14.9298 29.0701C13.9747 28.1476 13.2129 27.0442 12.6888 25.8241C12.1647 24.6041 11.8889 23.2919 11.8773 21.9641C11.8658 20.6363 12.1188 19.3195 12.6216 18.0905C13.1244 16.8616 13.867 15.7451 14.8059 14.8061C15.7448 13.8672 16.8613 13.1247 18.0903 12.6219C19.3193 12.1191 20.6361 11.866 21.9638 11.8776C23.2916 11.8891 24.6038 12.165 25.8239 12.6891C27.0439 13.2132 28.1474 13.975 29.0698 14.9301C30.8914 16.8161 31.8994 19.3421 31.8766 21.9641C31.8538 24.5861 30.8021 27.0942 28.948 28.9483C27.0939 30.8023 24.5858 31.854 21.9638 31.8768C19.3419 31.8996 16.8159 30.8917 14.9298 29.0701ZM16.3398 27.6601C17.841 29.1612 19.8769 30.0045 21.9998 30.0045C24.1227 30.0045 26.1587 29.1612 27.6598 27.6601C29.161 26.159 30.0043 24.123 30.0043 22.0001C30.0043 19.8772 29.161 17.8412 27.6598 16.3401C26.1587 14.839 24.1227 13.9956 21.9998 13.9956C19.8769 13.9956 17.841 14.839 16.3398 16.3401C14.8387 17.8412 13.9954 19.8772 13.9954 22.0001C13.9954 24.123 14.8387 26.159 16.3398 27.6601ZM26.2398 19.1701L23.4098 22.0001L26.2398 24.8301L24.8298 26.2401L21.9998 23.4101L19.1698 26.2401L17.7598 24.8301L20.5898 22.0001L17.7598 19.1701L19.1698 17.7601L21.9998 20.5901L24.8298 17.7601L26.2398 19.1701Z" fill="#262626" fill-opacity="0.5"/>
</svg>
