<svg width="24" height="24" viewBox="0 0 24 24" fill="none" xmlns="http://www.w3.org/2000/svg">
<path d="M22.8714 10.6551L18.2691 14.6264L19.6713 20.5654C19.7486 20.8878 19.7287 21.2258 19.614 21.5369C19.4993 21.848 19.295 22.1181 19.0269 22.3131C18.7588 22.5082 18.4389 22.6194 18.1076 22.6326C17.7763 22.6459 17.4485 22.5608 17.1656 22.3879L12.0008 19.2092L6.83298 22.3879C6.55012 22.5598 6.22273 22.6441 5.89201 22.6304C5.5613 22.6166 5.24205 22.5052 4.97448 22.3104C4.70691 22.1155 4.50298 21.8459 4.38836 21.5353C4.27374 21.2248 4.25357 20.8873 4.33037 20.5654L5.73764 14.6264L1.13537 10.6551C0.885106 10.4388 0.704111 10.1536 0.614988 9.83505C0.525865 9.5165 0.532564 9.17875 0.634249 8.86399C0.735933 8.54923 0.928096 8.2714 1.18674 8.06519C1.44538 7.85899 1.75904 7.73356 2.08855 7.70456L8.12264 7.21774L10.4504 1.58456C10.5764 1.27755 10.7908 1.01495 11.0664 0.83013C11.3421 0.645313 11.6664 0.546631 11.9983 0.546631C12.3301 0.546631 12.6545 0.645313 12.9301 0.83013C13.2057 1.01495 13.4202 1.27755 13.5462 1.58456L15.8729 7.21774L21.907 7.70456C22.2371 7.73248 22.5517 7.85721 22.8113 8.06313C23.0709 8.26905 23.2639 8.54699 23.3662 8.86214C23.4685 9.17728 23.4756 9.51561 23.3865 9.83474C23.2974 10.1539 23.116 10.4396 22.8653 10.6561L22.8714 10.6551Z" fill="#FF9900"/>
</svg>
