<svg width="97" height="97" viewBox="0 0 97 97" fill="none" xmlns="http://www.w3.org/2000/svg">
<path d="M71.0292 75.0738L62.5032 66.5418C58.2966 69.8163 53.116 71.5903 47.7852 71.5818C42.4543 71.5903 37.2737 69.8163 33.0672 66.5418L24.5412 75.0738C31.0336 80.579 39.2729 83.5948 47.7852 83.5818C56.6472 83.5818 64.7652 80.3778 71.0292 75.0738ZM75.2772 70.8258C80.7823 64.3333 83.7982 56.0941 83.7852 47.5818C83.7852 38.7198 80.5812 30.6018 75.2772 24.3378L66.7452 32.8638C69.9012 36.9318 71.7852 42.0378 71.7852 47.5818C71.7852 53.1258 69.9012 58.2318 66.7452 62.2998L75.2772 70.8258ZM71.0292 20.0898C64.5367 14.5846 56.2974 11.5688 47.7852 11.5818C38.9232 11.5818 30.8052 14.7858 24.5412 20.0898L33.0672 28.6218C37.2737 25.3473 42.4543 23.5732 47.7852 23.5818C53.3292 23.5818 58.4352 25.4658 62.5032 28.6218L71.0292 20.0898ZM20.2932 24.3378C14.788 30.8302 11.7722 39.0695 11.7852 47.5818C11.7852 56.4438 14.9892 64.5618 20.2932 70.8258L28.8252 62.2998C25.5506 58.0932 23.7766 52.9126 23.7852 47.5818C23.7852 42.0378 25.6692 36.9318 28.8252 32.8638L20.2932 24.3378ZM59.4132 61.3218C60.1737 60.6767 60.8801 59.9703 61.5252 59.2098C64.1832 56.0718 65.7852 52.0098 65.7852 47.5818C65.79 44.9653 65.2221 42.3795 64.1213 40.0059C63.0205 37.6322 61.4135 35.5283 59.4132 33.8418C56.1659 31.0862 52.044 29.5761 47.7852 29.5818C45.1687 29.5769 42.5829 30.1448 40.2092 31.2456C37.8356 32.3464 35.7317 33.9534 34.0452 35.9538C31.3872 39.0918 29.7852 43.1538 29.7852 47.5818C29.7803 50.1982 30.3482 52.7841 31.449 55.1577C32.5498 57.5313 34.1568 59.6353 36.1572 61.3218C39.2952 63.9798 43.3572 65.5818 47.7852 65.5818C52.2192 65.5818 56.2752 63.9798 59.4132 61.3218ZM47.7852 89.5818C36.6461 89.5818 25.9632 85.1568 18.0867 77.2803C10.2101 69.4037 5.78516 58.7209 5.78516 47.5818C5.78516 36.4427 10.2101 25.7598 18.0867 17.8833C25.9632 10.0068 36.6461 5.58179 47.7852 5.58179C58.9242 5.58179 69.6071 10.0068 77.4836 17.8833C85.3602 25.7598 89.7852 36.4427 89.7852 47.5818C89.7852 58.7209 85.3602 69.4037 77.4836 77.2803C69.6071 85.1568 58.9242 89.5818 47.7852 89.5818Z" fill="#D1D7E7"/>
</svg>
