<svg width="24" height="24" viewBox="0 0 24 24" fill="none" xmlns="http://www.w3.org/2000/svg">
<g clip-path="url(#clip0_2910_4062)">
<path d="M16.9259 16.9667C16.7781 16.8708 16.5984 16.8374 16.426 16.8736C16.2536 16.9098 16.1026 17.0128 16.0059 17.16C15.0659 18.6 13.3392 20.3667 11.7992 20.96C10.2592 21.5534 9.05255 21.34 8.57255 20.96C8.36588 20.78 7.82588 20.2934 8.28588 18.6334C8.59255 17.5267 10.4992 12.3134 10.9525 11.0467L9.49921 11.2334C9.03921 12.4734 7.30588 17.1267 6.99255 18.2867C6.53921 19.9467 6.76588 21.1534 7.71921 21.9934C8.38532 22.4607 9.18608 22.6972 9.99921 22.6667C10.7882 22.6553 11.5682 22.4971 12.2992 22.2C14.1592 21.4734 16.1125 19.4534 17.1392 17.8867C17.1858 17.8123 17.2172 17.7295 17.2316 17.643C17.2461 17.5564 17.2434 17.4679 17.2235 17.3824C17.2037 17.2969 17.1672 17.2162 17.1161 17.1449C17.0651 17.0735 17.0004 17.013 16.9259 16.9667Z" fill="#262626"/>
<path d="M12.8672 7.33331C13.4605 7.33331 14.0406 7.15737 14.5339 6.82772C15.0272 6.49808 15.4118 6.02954 15.6388 5.48136C15.8659 4.93319 15.9253 4.32999 15.8095 3.74804C15.6938 3.1661 15.4081 2.63155 14.9885 2.21199C14.569 1.79244 14.0344 1.50671 13.4525 1.39096C12.8705 1.2752 12.2673 1.33461 11.7191 1.56168C11.171 1.78874 10.7024 2.17326 10.3728 2.6666C10.0431 3.15995 9.86719 3.73997 9.86719 4.33331C9.86719 5.12896 10.1833 5.89203 10.7459 6.45463C11.3085 7.01724 12.0715 7.33331 12.8672 7.33331ZM12.8672 2.66665C13.1968 2.66665 13.5191 2.7644 13.7931 2.94753C14.0672 3.13067 14.2808 3.39097 14.407 3.69551C14.5331 4.00005 14.5661 4.33516 14.5018 4.65846C14.4375 4.98177 14.2788 5.27874 14.0457 5.51183C13.8126 5.74491 13.5156 5.90365 13.1923 5.96796C12.869 6.03227 12.5339 5.99926 12.2294 5.87311C11.9248 5.74697 11.6645 5.53335 11.4814 5.25926C11.2983 4.98518 11.2005 4.66295 11.2005 4.33331C11.2005 3.89129 11.3761 3.46736 11.6887 3.1548C12.0012 2.84224 12.4252 2.66665 12.8672 2.66665Z" fill="#262626"/>
<path d="M7.87337 10C7.91337 10 12.0534 9.45336 13.0267 9.33336C13.46 9.26669 13.7867 9.33336 13.8934 9.43336C14 9.53336 14.0334 9.96669 13.8467 10.5534C13.44 11.7934 11.3867 17.8867 10.7867 19.6934C11.08 19.6332 11.3677 19.5485 11.6467 19.44C11.9136 19.3296 12.1702 19.1958 12.4134 19.04C13.2334 16.6667 14.7667 12.0667 15.1134 11.0134C15.46 9.96002 15.3734 9.16002 14.9134 8.61336C14.651 8.34729 14.3225 8.15582 13.9616 8.05859C13.6008 7.96135 13.2206 7.96185 12.86 8.06002C11.9067 8.16002 7.88004 8.68669 7.70671 8.72669C7.5299 8.74968 7.36946 8.84196 7.26069 8.98324C7.15191 9.12451 7.10372 9.30321 7.12671 9.48002C7.14969 9.65684 7.24197 9.81727 7.38325 9.92604C7.52453 10.0348 7.70323 10.083 7.88004 10.06L7.87337 10Z" fill="#262626"/>
</g>
<defs>
<clipPath id="clip0_2910_4062">
<rect width="24" height="24" fill="white"/>
</clipPath>
</defs>
</svg>
