<svg width="86" height="87" viewBox="0 0 86 87" fill="none" xmlns="http://www.w3.org/2000/svg">
<g opacity="0.4">
<path d="M5.16406 18.6476C5.16406 14.1869 5.16406 11.9565 6.03232 10.2518C6.796 8.75306 8.01454 7.53452 9.5133 6.77084C11.2179 5.90259 13.4483 5.90259 17.9091 5.90259L68.0926 5.90259C72.5534 5.90259 74.7838 5.90259 76.4884 6.77084C77.9872 7.53452 79.2057 8.75306 79.9694 10.2518C80.8376 11.9565 80.8376 14.1869 80.8376 18.6476V68.8311C80.8376 73.2919 80.8376 75.5223 79.9694 77.2269C79.2057 78.7257 77.9872 79.9442 76.4884 80.7079C74.7838 81.5762 72.5534 81.5762 68.0926 81.5762H17.9091C13.4483 81.5762 11.2179 81.5762 9.5133 80.7079C8.01454 79.9442 6.796 78.7257 6.03232 77.2269C5.16406 75.5223 5.16406 73.2919 5.16406 68.8311L5.16406 18.6476Z" stroke="#E6E6E6" stroke-width="3" stroke-linecap="round"/>
<path d="M68.8892 81.5762L44.9923 21.8339M80.8376 13.8683L5.16406 29.7996M44.9923 55.8074C44.9923 64.4023 36.469 70.4403 32.7531 72.6667C32.2398 72.9761 31.6518 73.1397 31.0524 73.1397C30.453 73.1397 29.865 72.9761 29.3517 72.6667C25.6358 70.4403 17.1125 64.4023 17.1125 55.8034C17.1125 47.3718 23.8674 41.748 31.0524 41.748C38.4883 41.748 44.9923 47.3718 44.9923 55.8074Z" stroke="#E6E6E6" stroke-width="3"/>
<path d="M31.0531 59.6707C33.2528 59.6707 35.036 57.8875 35.036 55.6879C35.036 53.4882 33.2528 51.7051 31.0531 51.7051C28.8535 51.7051 27.0703 53.4882 27.0703 55.6879C27.0703 57.8875 28.8535 59.6707 31.0531 59.6707Z" fill="#E6E6E6"/>
</g>
</svg>
