<svg width="24" height="24" viewBox="0 0 24 24" fill="none" xmlns="http://www.w3.org/2000/svg">
<g clip-path="url(#clip0_2910_3830)">
<path d="M22.394 4.12666C22.3122 4.06012 22.2157 4.01394 22.1126 3.99192C22.0094 3.9699 21.9025 3.97267 21.8007 4L15.394 6L8.97399 2.74C8.88623 2.69938 8.79069 2.67834 8.69399 2.67834C8.59729 2.67834 8.50175 2.69938 8.41399 2.74L1.74733 5.46666C1.62453 5.51711 1.51959 5.60306 1.44595 5.71352C1.37231 5.82398 1.33333 5.95391 1.33399 6.08666V19.74C1.33454 19.8492 1.36189 19.9566 1.41365 20.0527C1.46542 20.1489 1.54 20.2308 1.63085 20.2914C1.7217 20.3519 1.82604 20.3893 1.93469 20.4001C2.04335 20.4109 2.15299 20.3948 2.25399 20.3533L8.66733 17.72L15.0607 21C15.1555 21.0486 15.2607 21.0738 15.3673 21.0733C15.4336 21.0834 15.501 21.0834 15.5673 21.0733L22.234 18.9933C22.3745 18.9493 22.4964 18.8601 22.5808 18.7395C22.6653 18.6189 22.7074 18.4737 22.7007 18.3267V4.66666C22.6972 4.55852 22.6675 4.45285 22.614 4.35877C22.5606 4.26469 22.4851 4.18503 22.394 4.12666ZM21.334 17.8333L15.7873 19.5667V18.04H14.7207V19.3733L9.12066 16.5V15.3733H8.05399V16.52L2.66733 18.74V6.52666L8.05399 4.30666V5.87333H9.12066V4.31333L14.7207 7.18V8.58H15.7873V7.33333L21.334 5.57333V17.8333Z" fill="#262626"/>
<path d="M14.7207 10.04H15.7874V12.58H14.7207V10.04Z" fill="#262626"/>
<path d="M14.7207 14.04H15.7874V16.58H14.7207V14.04Z" fill="#262626"/>
<path d="M8.05273 7.37332H9.1194V9.91332H8.05273V7.37332Z" fill="#262626"/>
<path d="M8.05273 11.42H9.1194V13.92H8.05273V11.42Z" fill="#262626"/>
</g>
<defs>
<clipPath id="clip0_2910_3830">
<rect width="24" height="24" fill="white"/>
</clipPath>
</defs>
</svg>
