<svg width="71" height="76" viewBox="0 0 71 76" fill="none" xmlns="http://www.w3.org/2000/svg">
<g opacity="0.4" clip-path="url(#clip0_2910_3855)">
<path d="M43 -10C37.3769 -10 33.0769 -5.7 33.0769 -0.0769234V19.7692C33.0769 25.3923 37.3769 29.6923 43 29.6923H62.8462L76.0769 42.9231V29.6923C81.7 29.6923 86 25.3923 86 19.7692V-0.0769234C86 -5.7 81.7 -10 76.0769 -10L43 -10ZM56.8526 -0.0769234H62.5352L68.1186 19.7692H63.1571L61.8108 14.8077H56.8493L55.6122 19.7692H51.2692L56.8526 -0.0769234ZM59.5385 3.23077C59.2077 4.55385 58.8372 6.168 58.5032 7.16031L57.577 11.5H61.5032L60.5705 7.157C59.9122 6.168 59.5385 4.55385 59.5385 3.23077ZM9.92308 23.0769C4.3 23.0769 0 27.3769 0 33L0 52.8462C0 58.4692 4.3 62.7692 9.92308 62.7692L9.92308 76L23.1538 62.7692H43C48.6231 62.7692 52.9231 58.4692 52.9231 52.8462V33H43C36.7154 33 31.734 28.7 30.0802 23.0769H9.92308ZM25.1186 32.6891C30.7417 32.6891 33.3878 37.3198 33.3878 42.6122C33.3878 47.2429 31.7968 50.1802 29.1507 51.5032C30.4738 52.1648 32.0416 52.5154 33.6955 52.8462L32.4584 56.1538C30.143 55.4923 27.7416 54.4603 25.4262 53.4647C25.0955 53.1339 24.5166 53.1571 24.1858 53.1571C20.2166 52.8263 16.5385 49.5385 16.5385 42.9231C16.5385 37.3 19.8263 32.6891 25.1186 32.6891ZM25.1186 36.3077C22.4725 36.3077 21.1891 39.2846 21.1891 42.9231C21.1891 46.8923 22.4725 49.5385 25.1186 49.5385C27.7648 49.5385 29.1474 46.5615 29.1474 42.9231C29.1474 39.2846 27.7648 36.3077 25.1186 36.3077Z" fill="#E6E6E6"/>
</g>
<defs>
<clipPath id="clip0_2910_3855">
<rect width="86" height="86" fill="white" transform="translate(0 -10)"/>
</clipPath>
</defs>
</svg>
