<svg width="24" height="24" viewBox="0 0 24 24" fill="none" xmlns="http://www.w3.org/2000/svg">
<path d="M18.035 15.0958C17.3943 15.604 16.6636 15.9867 15.881 16.2238C15.9597 16.7205 15.9993 17.2285 16 17.7478C17.7274 17.301 19.2559 16.2898 20.3427 14.8748C21.4295 13.4598 22.0123 11.7222 21.9985 9.93801C21.9847 8.15386 21.3751 6.42547 20.2666 5.02744C19.158 3.62941 17.6141 2.64192 15.88 2.22184C13.838 1.72855 11.6839 2.05794 9.88261 3.13893C8.08133 4.21993 6.77731 5.96583 6.252 7.99984C6.77067 7.99984 7.27833 8.03951 7.775 8.11884C8.01216 7.33628 8.39486 6.6055 8.903 5.96484L18.035 15.0958ZM19.095 14.0358L15.062 9.99984L15.823 9.23884C16.5352 9.73533 17.3829 10.0007 18.251 9.99884C19.0345 10.0005 19.8031 9.78443 20.471 9.37484C20.491 9.58017 20.501 9.78851 20.501 9.99984C20.5034 11.465 20.0084 12.8876 19.097 14.0348M16.225 3.88984C16.885 4.12984 17.495 4.47484 18.036 4.90384L15.849 7.09084C15.6197 6.68113 15.4995 6.21936 15.5 5.74984C15.5 5.03284 15.775 4.37984 16.225 3.88984ZM14.76 8.17784L14 8.93884L9.965 4.90384C11.2809 3.85789 12.9522 3.36511 14.625 3.52984C14.2151 4.19767 13.9987 4.96623 14 5.74984C14 6.65284 14.28 7.48984 14.76 8.17784ZM20.11 7.77584C19.6031 8.24244 18.939 8.50094 18.25 8.49984C17.763 8.49984 17.306 8.37284 16.91 8.15084L19.096 5.96484C19.5287 6.50999 19.8711 7.12211 20.11 7.77584ZM4.25 10.4998C4.05109 10.4998 3.86032 10.5789 3.71967 10.7195C3.57902 10.8602 3.5 11.0509 3.5 11.2498V13.2498C3.5 15.1727 4.26384 17.0167 5.62348 18.3764C6.98311 19.736 8.82718 20.4998 10.75 20.4998H12.75C12.9489 20.4998 13.1397 20.4208 13.2803 20.2802C13.421 20.1395 13.5 19.9488 13.5 19.7498V17.7498C13.5 15.827 12.7362 13.983 11.3765 12.6233C10.0169 11.2637 8.17282 10.4998 6.25 10.4998H4.25ZM2 11.2498C2 10.6531 2.23705 10.0808 2.65901 9.65885C3.08097 9.23689 3.65326 8.99984 4.25 8.99984H6.25C8.57064 8.99984 10.7962 9.92171 12.4372 11.5627C14.0781 13.2036 15 15.4292 15 17.7498V19.7498C15 20.3466 14.7629 20.9189 14.341 21.3408C13.919 21.7628 13.3467 21.9998 12.75 21.9998H10.75C8.42936 21.9998 6.20376 21.078 4.56282 19.437C2.92187 17.7961 2 15.5705 2 13.2498V11.2498ZM7.78 13.7198C7.63783 13.5874 7.44978 13.5152 7.25548 13.5187C7.06118 13.5221 6.87579 13.6008 6.73838 13.7382C6.60097 13.8756 6.52225 14.061 6.51883 14.2553C6.5154 14.4496 6.58752 14.6377 6.72 14.7798L9.22 17.2798C9.28866 17.3535 9.37146 17.4126 9.46346 17.4536C9.55546 17.4946 9.65478 17.5167 9.75548 17.5184C9.85618 17.5202 9.95621 17.5017 10.0496 17.464C10.143 17.4262 10.2278 17.3701 10.299 17.2989C10.3703 17.2277 10.4264 17.1428 10.4641 17.0494C10.5018 16.956 10.5204 16.856 10.5186 16.7553C10.5168 16.6546 10.4948 16.5553 10.4538 16.4633C10.4128 16.3713 10.3537 16.2885 10.28 16.2198L7.78 13.7198Z" fill="#EEF0F5"/>
</svg>
